<svg width="18" height="24" viewBox="0 0 18 24" fill="none" xmlns="http://www.w3.org/2000/svg">
<path d="M3.20946 7.38026C0.928715 11.9639 -0.442867 19.9465 5.22416 22.3413C6.42846 22.8439 7.72045 23.1026 9.0254 23.1026C10.3304 23.1026 11.6223 22.8439 12.8266 22.3413C17.7683 20.2855 17.7683 12.7907 14.2078 7.45311M6.5007 10.4213V19.0026M11.2618 10.4213V19.0026M5.39519 2.96767C5.39519 1.76711 6.8713 0.785156 8.68006 0.785156H9.08553C10.8943 0.785156 12.3705 1.76711 12.3705 2.96767M2.24014 3.20208H15.5223C16.2466 3.20208 16.8338 3.78923 16.8338 4.51351V6.06885C16.8338 6.79314 16.2466 7.38028 15.5223 7.38028H2.24014C1.51586 7.38028 0.928711 6.79314 0.928711 6.06885V4.51351C0.928711 3.78923 1.51586 3.20208 2.24014 3.20208Z" stroke="#FD5D69" stroke-width="1.54522" stroke-linecap="round" stroke-linejoin="round"/>
</svg>
