<svg width="28" height="29" viewBox="0 0 28 29" fill="none" xmlns="http://www.w3.org/2000/svg">
<path d="M23.7711 23.661C25.969 21.1689 27.1884 17.9076 27.188 14.5231C27.188 12.7496 26.8528 10.9936 26.2013 9.35518C25.5499 7.71679 24.5951 6.22817 23.3915 4.97436C22.1878 3.72054 20.7589 2.72609 19.1863 2.0478C17.6138 1.36952 15.9285 1.02069 14.2266 1.02124C10.79 1.02124 7.49422 2.44375 5.06421 4.97583C2.6342 7.50791 1.26904 10.9422 1.26904 14.5231C1.26925 17.6013 2.2788 20.5871 4.13059 22.9856C5.98238 25.384 8.56524 27.0511 11.4508 27.7105V18.8239H7.73366V14.7913H11.4548V11.2912C11.4548 10.2228 11.8622 9.19818 12.5872 8.44272C13.3122 7.68726 14.2953 7.26285 15.3207 7.26285H18.7401V11.2954H16.8453C16.441 11.2954 16.0533 11.4627 15.7673 11.7607C15.4814 12.0586 15.3207 12.4627 15.3207 12.8841V14.7913H19.0298V18.8239H15.3207V27.9788C18.5573 27.694 21.5733 26.153 23.7711 23.661Z" stroke="#FFFDF9" stroke-width="1.60913" stroke-linecap="round" stroke-linejoin="round"/>
</svg>
