<svg width="29" height="29" viewBox="0 0 29 29" fill="none" xmlns="http://www.w3.org/2000/svg">
<path d="M20.7769 9.54119C19.957 8.39502 18.8672 7.48795 17.6122 6.90744C16.3573 6.32692 14.9797 6.09255 13.6124 6.22694C11.7875 6.41008 10.078 7.23795 8.76851 8.57269C7.45904 9.90743 6.62862 11.6685 6.41551 13.5626C6.28741 14.7278 6.39742 15.908 6.73844 17.0259C7.07945 18.1438 7.64378 19.174 8.39432 20.0492C9.14485 20.9243 10.0647 21.6246 11.0936 22.1042C12.1225 22.5837 13.2371 22.8316 14.3645 22.8317C16.3755 22.831 18.3126 22.0427 19.79 20.6236C21.2675 19.2046 22.1771 17.2589 22.3379 15.1737C22.3434 15.0893 22.3321 15.0046 22.3049 14.9248C22.2777 14.8451 22.2352 14.772 22.1798 14.71C22.1244 14.6481 22.0573 14.5986 21.9828 14.5646C21.9082 14.5307 21.8278 14.5129 21.7465 14.5126H14.4451M27.3101 14.5C27.3101 21.9441 21.5088 27.9788 14.3525 27.9788C7.1963 27.9788 1.39502 21.9441 1.39502 14.5C1.39502 7.05589 7.1963 1.02124 14.3525 1.02124C21.5088 1.02124 27.3101 7.05589 27.3101 14.5Z" stroke="#FFFDF9" stroke-width="1.60913" stroke-linecap="round" stroke-linejoin="round"/>
</svg>
