<svg width="26" height="27" viewBox="0 0 26 27" fill="none" xmlns="http://www.w3.org/2000/svg">
<g clip-path="url(#clip0_9602_13027)">
<path d="M21.6992 1H3.87941C2.28916 1 1 2.36625 1 4.05161V22.9371C1 24.6225 2.28916 25.9887 3.87941 25.9887H21.6992C23.2895 25.9887 24.5787 24.6225 24.5787 22.9371V4.05161C24.5787 2.36625 23.2895 1 21.6992 1Z" stroke="#FFFDF9" stroke-width="1.60913" stroke-linecap="round" stroke-linejoin="round"/>
<path d="M19.7145 7.95842C20.584 7.95842 21.2889 7.21139 21.2889 6.28988C21.2889 5.36837 20.584 4.62134 19.7145 4.62134C18.845 4.62134 18.1401 5.36837 18.1401 6.28988C18.1401 7.21139 18.845 7.95842 19.7145 7.95842Z" fill="#FFFDF9"/>
</g>
<defs>
<clipPath id="clip0_9602_13027">
<rect width="25.4363" height="26.9575" fill="white" transform="translate(0 0.0212402)"/>
</clipPath>
</defs>
</svg>
