<svg width="32" height="44" viewBox="0 0 32 44" fill="none" xmlns="http://www.w3.org/2000/svg">
<path d="M12.4974 39.401L28.2953 27.4107C29.3241 26.6294 30.1582 25.6207 30.7324 24.4635C31.3066 23.3063 31.6054 22.032 31.6054 20.7402C31.6054 19.4484 31.3066 18.1741 30.7324 17.0169C30.1582 15.8597 29.3241 14.851 28.2953 14.0697L12.4974 2.0791C11.4975 1.31849 10.3051 0.852598 9.05444 0.733643C7.80377 0.614688 6.54451 0.847412 5.41914 1.40587C4.29377 1.96434 3.34727 2.82632 2.6856 3.89427C2.02393 4.96222 1.67379 6.19369 1.67478 7.45V34.0304C1.67379 35.2867 2.02393 36.5182 2.6856 37.5861C3.34727 38.6541 4.29377 39.5158 5.41914 40.0743C6.54451 40.6327 7.80377 40.8657 9.05444 40.7467C10.3051 40.6278 11.4975 40.1616 12.4974 39.401Z" fill="#FFFDF9"/>
</svg>
