<svg width="12" height="12" viewBox="0 0 12 12" fill="none" xmlns="http://www.w3.org/2000/svg">
<path id="Vector" d="M3.53308 5.19741H4.97957M3.53308 6.71699H8.81506M10.933 10.3378L10.1717 8.7634C10.4664 8.32574 10.6847 7.84129 10.8173 7.33062C11.0755 6.36998 11.0597 5.35626 10.7716 4.40415C9.73015 0.987379 6.17636 1.24775 6.17636 1.24775C6.17636 1.24775 2.57078 0.982811 1.55823 4.48028C1.28267 5.43838 1.28267 6.45475 1.55823 7.41285C2.57078 10.9149 6.17636 10.6469 6.17636 10.6469C7.15049 10.6776 8.11324 10.4305 8.9521 9.93432L10.5326 10.7337C10.5881 10.7572 10.6494 10.7637 10.7087 10.7523C10.7679 10.7409 10.8224 10.7122 10.8653 10.6698C10.9082 10.6274 10.9376 10.5732 10.9496 10.5141C10.9617 10.455 10.9559 10.3936 10.933 10.3378Z" stroke="#FFFDF9" stroke-width="0.761311" stroke-linecap="round" stroke-linejoin="round"/>
</svg>
