<svg width="16" height="18" viewBox="0 0 16 18" fill="none" xmlns="http://www.w3.org/2000/svg">
<path d="M5.33912 10.5657L10.4867 14.2579M5.33912 10.5657C5.60073 10.1658 5.75333 9.65973 5.75333 9.06272C5.75333 8.46571 5.60073 7.98287 5.33912 7.61203M5.33912 10.5657C4.89887 11.2387 4.1499 11.6112 3.3 11.6112C1.94507 11.6112 0.84668 10.6644 0.84668 9.06272C0.84668 7.46102 1.94507 6.68108 3.3 6.68108C4.1499 6.68108 4.89887 6.98795 5.33912 7.61203M10.6561 4.05168L5.33912 7.61203M10.6561 4.05168C11.0183 4.95554 11.9017 5.36638 12.9339 5.36638C14.2888 5.36638 15.3872 4.65849 15.3872 3.05678C15.3872 1.45508 14.2888 0.600586 12.9339 0.600586C11.5789 0.600586 10.4805 1.45508 10.4805 3.05678C10.4805 3.43828 10.5429 3.76908 10.6561 4.05168ZM15.3872 14.6693C15.3872 16.271 14.2888 17.0343 12.9339 17.0343C11.5789 17.0343 10.4805 16.271 10.4805 14.6693C10.4805 13.0676 11.5789 12.1042 12.9339 12.1042C14.2888 12.1042 15.3872 13.0676 15.3872 14.6693Z" stroke="#EC888D" stroke-linecap="round" stroke-linejoin="round"/>
</svg>
