<svg width="28" height="29" viewBox="0 0 28 29" fill="none" xmlns="http://www.w3.org/2000/svg">
<path d="M26.1065 19.1942C25.4637 20.8887 24.4934 22.4279 23.2559 23.7164C21.217 25.8416 18.548 27.1873 15.6819 27.5354C12.8158 27.8835 9.92064 27.2135 7.46633 25.6341C7.30831 25.5538 7.13363 25.516 6.95798 25.524C6.78232 25.5321 6.61126 25.5857 6.46062 25.6801C4.236 26.6641 1.14648 27.9788 1.14648 27.9788C1.14648 27.9788 2.67129 24.0263 3.31091 22.3892C3.39991 22.2332 3.45003 22.0566 3.45706 21.8753C3.46408 21.694 3.42762 21.5137 3.35099 21.3508C1.74881 18.6669 1.11611 15.4774 1.56566 12.3525C2.01521 9.22754 3.51775 6.37087 5.80495 4.29308C8.14 2.18305 11.1284 1.02124 14.2207 1.02124C17.313 1.02124 20.3015 2.18305 22.6366 4.29308C23.9534 5.49332 25.0195 6.96215 25.7688 8.60861C26.5181 10.2551 26.9347 12.0441 26.9928 13.8649C27.0508 15.6858 26.7492 17.4996 26.1065 19.1942Z" stroke="#FFFDF9" stroke-width="1.60913" stroke-linecap="round" stroke-linejoin="round"/>
</svg>
